<svg width="18" height="19" viewBox="0 0 18 19" fill="none" xmlns="http://www.w3.org/2000/svg">
<path d="M16.0714 0.285706H1.92857C1.41708 0.285706 0.926543 0.488894 0.564865 0.850571C0.203188 1.21225 0 1.70279 0 2.21428L0 16.3571C0 16.8686 0.203188 17.3592 0.564865 17.7208C0.926543 18.0825 1.41708 18.2857 1.92857 18.2857H7.44308V12.1661H4.91183V9.2857H7.44308V7.09035C7.44308 4.59325 8.92969 3.21392 11.2066 3.21392C12.2971 3.21392 13.4373 3.40838 13.4373 3.40838V5.85928H12.1809C10.943 5.85928 10.5569 6.62749 10.5569 7.41539V9.2857H13.3204L12.8784 12.1661H10.5569V18.2857H16.0714C16.5829 18.2857 17.0735 18.0825 17.4351 17.7208C17.7968 17.3592 18 16.8686 18 16.3571V2.21428C18 1.70279 17.7968 1.21225 17.4351 0.850571C17.0735 0.488894 16.5829 0.285706 16.0714 0.285706Z" fill="white"/>
</svg>
