<svg width="18" height="19" viewBox="0 0 18 19" fill="none" xmlns="http://www.w3.org/2000/svg">
<path d="M9 0.290833C4.02823 0.290833 0 4.32621 0 9.30681C0 14.2874 4.02823 18.3228 9 18.3228C13.9718 18.3228 18 14.2874 18 9.30681C18 4.32621 13.9718 0.290833 9 0.290833ZM13.4202 6.46751L11.9431 13.4403C11.8343 13.9348 11.5403 14.0547 11.1302 13.8221L8.88024 12.1607L7.79516 13.2077C7.6754 13.3276 7.57379 13.4294 7.34153 13.4294L7.50121 11.1355L11.671 7.36183C11.8524 7.20187 11.631 7.11099 11.3915 7.27095L6.23831 10.5211L4.01734 9.82668C3.53468 9.674 3.52379 9.34317 4.11895 9.1105L12.796 5.75859C13.1988 5.61317 13.5508 5.85675 13.4202 6.46751Z" fill="white"/>
</svg>
